<svg width="32" height="32" viewBox="0 0 32 32" fill="none" xmlns="http://www.w3.org/2000/svg">
<path d="M17 22C16.7239 22 16.5 21.7761 16.5 21.5C16.5 21.2239 16.7239 21 17 21" stroke="#EFEFEF"/>
<path d="M17 22C17.2761 22 17.5 21.7761 17.5 21.5C17.5 21.2239 17.2761 21 17 21" stroke="#EFEFEF"/>
<path d="M13 13C13 12.2089 13.2346 11.4355 13.6741 10.7777C14.1136 10.1199 14.7384 9.60724 15.4692 9.30448C16.2001 9.00173 17.0044 8.92252 17.7804 9.07686C18.5563 9.2312 19.2691 9.61216 19.8284 10.1716C20.3879 10.731 20.7688 11.4437 20.9232 12.2196C21.0775 12.9956 20.9983 13.7999 20.6955 14.5308C20.3928 15.2616 19.8801 15.8864 19.2223 16.3259C18.5645 16.7655 17.7911 17 17 17V18.5" stroke="#EFEFEF" stroke-linecap="round" stroke-linejoin="round"/>
<path d="M4.16666 21.5L1.63246 29.1026C1.37187 29.8844 2.11561 30.6281 2.89737 30.3675L10.1048 27.9651C10.3577 27.8808 10.6331 27.9025 10.8746 28.0156C12.7378 28.888 14.7725 29.3387 16.8333 29.3333C19.4637 29.3323 22.0419 28.599 24.279 27.2155C26.5162 25.832 28.324 23.8529 29.4999 21.5C30.4917 19.5365 31.0057 17.3665 30.9999 15.1667V14.3334C30.8083 10.8595 29.342 7.5783 26.8819 5.11814C24.4217 2.65798 21.1405 1.1917 17.6666 1.00005H16.8333C14.6335 0.994312 12.4635 1.50827 10.5 2.50005C8.14708 3.67599 6.16803 5.48379 4.78452 7.72095C3.40102 9.95812 2.66768 12.5363 2.66666 15.1667C2.66533 15.679 2.69217 16.1896 2.74667 16.6964" stroke="#EFEFEF" stroke-linecap="round" stroke-linejoin="round"/>
</svg>
