<svg width="88" height="88" viewBox="0 0 88 88" fill="none" xmlns="http://www.w3.org/2000/svg">
<path d="M48 27C48 26.4477 48.4477 26 49 26H65C65.5523 26 66 26.4477 66 27V69C66 72.866 62.866 76 59 76H55C51.134 76 48 72.866 48 69V27Z" stroke="#090909"/>
<path d="M50 26H64V22C64 21.4477 63.5523 21 63 21H51C50.4477 21 50 21.4477 50 22V26Z" stroke="#090909"/>
<path d="M22 47C22 46.4477 22.4477 46 23 46H39C39.5523 46 40 46.4477 40 47V69C40 72.866 36.866 76 33 76H29C25.134 76 22 72.866 22 69V47Z" stroke="#090909"/>
<path d="M26.5 51L26.5 69C26.5 69 26.4307 70.4307 27 71C28 72 29 71.5 29 71.5" stroke="#090909" stroke-linecap="round"/>
<path d="M31 12L31 46M26 15L36 15M26 19.5L36 19.5M26 24L36 24M26 28L36 28M26 32.5L36 32.5" stroke="#090909" stroke-linecap="round"/>
</svg>
