<svg width="88" height="88" viewBox="0 0 88 88" fill="none" xmlns="http://www.w3.org/2000/svg">
<path d="M26 15.5497V11.5C26 11.2239 25.7761 11 25.5 11H22.5C22.2239 11 22 11.2239 22 11.5V46.5C22 46.7761 22.2239 47 22.5 47H25.5C25.7761 47 26 46.7761 26 46.5V33.2726M26 15.5497C24.4474 15.3495 23.2395 15.1798 22.5738 15.0839C22.2711 15.0403 22 15.2751 22 15.5808V32.5359C22 32.7976 22.2011 33.0149 22.4621 33.0336C23.0983 33.0793 24.3546 33.1674 26 33.2726M26 15.5497C30.532 16.1339 38.0014 16.9775 43.5 17C49.3284 17.0239 57.2771 16.1431 62 15.5427M26 33.2726C30.6331 33.5687 38.3516 34 44 34C49.6484 34 57.3669 33.5687 62 33.2726M62 15.5427V11.5C62 11.2239 62.2239 11 62.5 11H65.5C65.7761 11 66 11.2239 66 11.5V46.5C66 46.7761 65.7761 47 65.5 47H62.5C62.2239 47 62 46.7761 62 46.5V33.2726M62 15.5427C63.5565 15.3449 64.7626 15.1774 65.427 15.0829C65.7294 15.0398 66 15.2745 66 15.5799V32.5359C66 32.7976 65.7989 33.0149 65.5379 33.0336C64.9017 33.0793 63.6454 33.1674 62 33.2726M28 53L41 66M34 53L44 63M60 53L47 66M54 53L44 63M44 63L47 66M47 66L56.1464 75.1464C56.4614 75.4614 56.2383 76 55.7929 76H51.2071C51.0745 76 50.9473 75.9473 50.8536 75.8536L44 69M44 69L37.1464 75.8536C37.0527 75.9473 36.9255 76 36.7929 76H32.2071C31.7617 76 31.5386 75.4614 31.8536 75.1464L41 66M44 69L41 66M18.5 53H69.5C69.7761 53 70 52.7761 70 52.5V47.5C70 47.2239 69.7761 47 69.5 47H18.5C18.2239 47 18 47.2239 18 47.5V52.5C18 52.7761 18.2239 53 18.5 53Z" stroke="#090909"/>
</svg>
