<svg width="32" height="32" viewBox="0 0 32 32" fill="none" xmlns="http://www.w3.org/2000/svg">
<path d="M7.00326 20.0776C6.19382 20.8871 4.84475 20.8871 4.03531 20.0776C3.22586 19.2682 3.22586 17.9191 4.03531 17.1097H4.10276L6.32873 14.8837C7.13817 14.0743 8.48725 14.0743 9.29669 14.8837C9.70141 15.2884 9.90377 15.828 9.90377 16.3677C9.90377 16.9073 9.70141 17.4469 9.29669 17.8517" stroke="#090909" stroke-miterlimit="10" stroke-linecap="round" stroke-linejoin="round"/>
<path d="M9.97153 23.0454C9.16208 23.8548 7.81301 23.8548 7.00357 23.0454C6.19412 22.236 6.19412 20.8869 7.00357 20.0774L9.22954 17.8515C10.039 17.042 11.3881 17.042 12.1975 17.8515C12.6022 18.2562 12.8046 18.7958 12.8046 19.3354C12.8046 19.8751 12.6022 20.4147 12.1975 20.8194" stroke="#090909" stroke-miterlimit="10" stroke-linecap="round" stroke-linejoin="round"/>
<path d="M13.0067 26.081C12.1972 26.8905 10.9156 26.8905 10.1062 26.1485L10.0387 26.081C9.22928 25.2716 9.22928 23.9225 10.0387 23.1131L12.2647 20.8871C13.0741 20.0777 14.4232 20.0777 15.2327 20.8871C15.6374 21.2918 15.8397 21.8315 15.8397 22.3711C15.8397 22.9107 15.6374 23.4504 15.2327 23.8551" stroke="#090909" stroke-miterlimit="10" stroke-linecap="round" stroke-linejoin="round"/>
<path d="M18.7405 25.8786C18.6731 26.2158 18.4707 26.4856 18.2009 26.7555L15.9749 28.9814C15.1655 29.7909 13.8164 29.7909 13.007 28.9814C12.1975 28.172 12.1975 26.8229 13.007 26.0135L15.233 23.7875C16.0424 22.9781 17.3915 22.9781 18.2009 23.7875C18.6056 24.1922 18.808 24.7319 18.808 25.2715C18.808 25.5413 18.808 25.7437 18.7405 25.8786Z" stroke="#090909" stroke-miterlimit="10" stroke-linecap="round" stroke-linejoin="round"/>
<path d="M19.5 9L27.914 17.0421L28.4536 17.5818C29.2631 18.3912 29.2631 19.7403 28.4536 20.5497C28.0489 20.9544 27.5093 21.1568 26.9697 21.1568C26.43 21.1568 25.8904 20.9544 25.4857 20.5497" stroke="#090909" stroke-miterlimit="10" stroke-linecap="round" stroke-linejoin="round"/>
<path d="M15.9747 5.17023L15.8398 5.03533L15.4351 4.56315C12.1298 1.25792 6.80101 1.25792 3.49578 4.56315C1.8769 6.18204 1 8.34055 1 10.4991C1 11.8078 1.29756 13.1165 1.90772 14.305" stroke="#090909" stroke-miterlimit="10" stroke-linecap="round" stroke-linejoin="round"/>
<path d="M22.5176 23.5852C23.327 24.3946 23.327 25.7437 22.5176 26.5532C22.1128 26.9579 21.5732 27.1602 21.0336 27.1602C20.494 27.1602 19.9543 26.9579 19.5496 26.5532L18.8076 25.8112" stroke="#090909" stroke-miterlimit="10" stroke-linecap="round" stroke-linejoin="round"/>
<path d="M21.2361 16.3L21.371 16.5024L25.4857 20.6171C26.2951 21.4265 26.2951 22.7756 25.4857 23.585C25.081 23.9898 24.5413 24.1921 24.0017 24.1921C23.4621 24.1921 22.9224 23.9898 22.5177 23.585L18.403 19.4704L18.2007 19.3355" stroke="#090909" stroke-miterlimit="10" stroke-linecap="round" stroke-linejoin="round"/>
<path d="M19.4825 8.74536L16.0423 12.1855C15.5701 12.6577 14.8956 12.9275 14.2885 12.9275C13.6814 12.9275 13.0069 12.6577 12.5347 12.1855C11.5229 11.1737 11.5229 9.62226 12.5347 8.61045L15.9749 5.17032L16.582 4.56324C18.2008 2.94435 20.4268 2 22.5853 2C24.7438 2 26.9024 2.8769 28.5212 4.49578C31.2821 7.2566 31.7368 11.4293 29.8855 14.6552" stroke="#090909" stroke-miterlimit="10" stroke-linecap="round" stroke-linejoin="round"/>
</svg>
