<svg width="88" height="88" viewBox="0 0 88 88" fill="none" xmlns="http://www.w3.org/2000/svg">
<path d="M43.8585 32.521V22.7789C43.8585 22.4074 43.711 22.0512 43.4483 21.7885C43.1857 21.5259 42.8294 21.3783 42.458 21.3783H34.0547C33.6832 21.3783 33.327 21.5259 33.0643 21.7885C32.8017 22.0512 32.6541 22.4074 32.6541 22.7789V32.521" stroke="#090909" stroke-miterlimit="10"/>
<path d="M41.0574 14.3341V21.3783" stroke="#090909" stroke-miterlimit="10"/>
<path d="M35.4552 21.3783V14.3341" stroke="#090909" stroke-miterlimit="10"/>
<path d="M29.6147 26.9805H46.4214" stroke="#090909" stroke-miterlimit="10" stroke-linecap="round"/>
<path d="M55.063 69.9095C55.063 73.0088 55.063 76 49.9748 76H26.5379C21.4496 76 21.4496 73.0088 21.4496 69.9095V46.4085C21.4496 34.3046 30.0418 32.5828 32.6541 32.5828H43.8585C46.4708 32.5828 55.063 34.3046 55.063 46.4085V69.9095Z" stroke="#090909" stroke-miterlimit="10" stroke-linecap="round"/>
<path d="M20 12C26.865 14.1058 27.751 14.3341 31.2015 14.3341L51.995 14.1422C55.6939 14.1444 59.3492 14.9403 62.714 16.4763" stroke="#090909" stroke-linecap="round" stroke-linejoin="round"/>
<path d="M59.0006 33.2266C59.0006 34.341 59.4433 35.4097 60.2312 36.1977C61.0192 36.9856 62.0879 37.4283 63.2022 37.4283C64.3166 37.4283 65.3853 36.9856 66.1733 36.1977C66.9612 35.4097 67.4039 34.341 67.4039 33.2266C67.4039 30.9061 63.2022 25.8613 63.2022 25.8613C63.2022 25.8613 59.0006 30.9062 59.0006 33.2266Z" stroke="#090909" stroke-linecap="round" stroke-linejoin="round"/>
<path d="M54.9638 46.5462H31.1544V63.3529H54.9638" stroke="#090909" stroke-linecap="round" stroke-linejoin="round"/>
</svg>
