<svg width="88" height="88" viewBox="0 0 88 88" fill="none" xmlns="http://www.w3.org/2000/svg">
<path d="M59.6187 22.901C58.6082 20.9178 57.2247 19.1481 55.544 17.689C52.3228 14.8805 48.1937 13.3333 43.9201 13.3333C39.6465 13.3333 35.5174 14.8805 32.2961 17.689C29.347 20.234 27.3585 23.7122 26.6614 27.5447C25.9643 31.3772 26.6007 35.3329 28.4648 38.7533C30.9851 43.6336 43.9172 59.7898 43.92 68C43.9228 59.7898 56.8549 43.6336 59.3753 38.7533C60.6696 36.3195 61.3667 33.6128 61.409 30.8565C61.4513 28.1002 60.8377 25.3734 59.6187 22.901Z" stroke="#090909" stroke-miterlimit="10" stroke-linejoin="round"/>
<path d="M43.92 34.3147C45.8471 34.3147 47.4094 32.7525 47.4094 30.8254C47.4094 28.8982 45.8471 27.336 43.92 27.336C41.9929 27.336 40.4306 28.8982 40.4306 30.8254C40.4306 32.7525 41.9929 34.3147 43.92 34.3147Z" stroke="#090909" stroke-miterlimit="10"/>
<path d="M51.5027 61.3333C64.8125 62.072 74.6667 64.731 74.6667 67.898C74.6667 71.6362 60.9367 74.6666 44 74.6666C27.0633 74.6666 13.3333 71.6362 13.3333 67.898C13.3333 64.743 23.1132 62.0921 36.3468 61.3418" stroke="#090909" stroke-miterlimit="10" stroke-linecap="round"/>
</svg>
